<svg xmlns="http://www.w3.org/2000/svg" version="1.1" xmlns:xlink="http://www.w3.org/1999/xlink" xmlns:svgjs="http://svgjs.dev/svgjs" width="1000" height="1000"><g clip-path="url(#SvgjsClipPath1019)"><rect width="1000" height="1000" fill="#ffffff"></rect><g transform="matrix(29.166666666666668,0,0,29.166666666666668,150,150)"><svg xmlns="http://www.w3.org/2000/svg" version="1.1" xmlns:xlink="http://www.w3.org/1999/xlink" xmlns:svgjs="http://svgjs.dev/svgjs" width="24" height="24"><svg xmlns="http://www.w3.org/2000/svg" width="24" height="24" viewBox="0 0 24 24" fill="none" stroke="currentColor" stroke-width="2" stroke-linecap="round" stroke-linejoin="round" class="lucide lucide-dumbbell"><path d="M14.4 14.4 9.6 9.6"></path><path d="M18.657 21.485a2 2 0 1 1-2.829-2.828l-1.767 1.768a2 2 0 1 1-2.829-2.829l6.364-6.364a2 2 0 1 1 2.829 2.829l-1.768 1.767a2 2 0 1 1 2.828 2.829z"></path><path d="m21.5 21.5-1.4-1.4"></path><path d="M3.9 3.9 2.5 2.5"></path><path d="M6.404 12.768a2 2 0 1 1-2.829-2.829l1.768-1.767a2 2 0 1 1-2.828-2.829l2.828-2.828a2 2 0 1 1 2.829 2.828l1.767-1.768a2 2 0 1 1 2.829 2.829z"></path></svg></svg></g></g><defs><clipPath id="SvgjsClipPath1019"><rect width="1000" height="1000" x="0" y="0" rx="350" ry="350"></rect></clipPath></defs></svg>